<svg width="34" height="24" viewBox="0 0 34 24" fill="none" xmlns="http://www.w3.org/2000/svg">
<path d="M33.2019 3.44872C33.1114 3.29441 32.9369 3.22062 32.7724 3.24404L32.7759 3.23733C29.6424 3.83113 26.4051 3.30449 23.6441 1.79484L23.6408 1.7982C21.6447 0.654165 19.3332 0 16.8641 0C10.017 0 4.35758 5.02881 3.33772 11.5908C3.32756 11.6612 3.31413 11.735 3.30414 11.8054C3.29153 11.8948 3.27957 11.9845 3.26843 12.0745C3.25876 12.1526 3.24975 12.231 3.24156 12.3096C3.22911 12.4295 3.21847 12.5499 3.21011 12.671C3.2034 12.775 3.20012 12.8789 3.1934 12.983C3.18931 13.0554 3.1844 13.1274 3.17948 13.1995C3.16801 13.3678 3.15655 13.5361 3.15655 13.7077L3.15704 13.7239L3.15769 13.7391L3.15819 13.745C3.15901 13.7593 3.15982 13.7737 3.15982 13.7882L3.15655 13.7915C3.21355 17.002 2.13996 20.1656 0.0902368 22.6883L0.103669 22.6817L0.106945 22.685C-0.0103409 22.8192 -0.0372054 23.0172 0.0566563 23.1815C0.177546 23.3828 0.439147 23.4499 0.643742 23.3291L7.37688 19.3235L8.01753 18.9411C7.1084 17.4046 6.57505 15.6199 6.57505 13.7043C6.57505 8.02124 11.1811 3.41514 16.8641 3.41514C20.6148 3.41514 23.8857 5.428 25.6838 8.42388L28.6158 6.67933L28.6797 6.63912L33.0544 4.03581C33.2555 3.915 33.3227 3.65332 33.2019 3.44872Z" fill="#446BF4"/>
<path d="M22.7551 10.165C21.5508 8.16555 19.3668 6.82364 16.8607 6.82364C13.0599 6.82364 9.98011 9.90331 9.98011 13.7043C9.98011 14.9825 10.3357 16.1734 10.9395 17.1966L22.7551 10.165Z" fill="#446BF4"/>
<path d="M27.1163 12.9092C27.1163 12.9125 27.1129 12.9159 27.1129 12.9192C27.1365 13.1808 27.1498 13.4425 27.1532 13.7109C27.1532 19.3939 22.5471 24 16.8641 24C13.0967 24 9.80893 21.9671 8.01753 18.9444L10.943 17.2032C12.1406 19.2295 14.3413 20.5916 16.8641 20.5916C20.5174 20.5916 23.4965 17.7434 23.7245 14.1471L26.4487 12.5267L26.4521 12.53C26.5158 12.4898 26.5895 12.463 26.6701 12.463C26.9049 12.463 27.0927 12.6441 27.1096 12.8756H27.1129V12.889C27.1129 12.8924 27.1137 12.8957 27.1147 12.8991C27.1155 12.9025 27.1163 12.9058 27.1163 12.9092Z" fill="#446BF4"/>
</svg>
