<svg width="16" height="16" viewBox="0 0 16 16" fill="none" xmlns="http://www.w3.org/2000/svg">
<path fill-rule="evenodd" clip-rule="evenodd" d="M6.86968 8.00001L1.23412 2.36444C1.0322 2.16253 0.953347 1.86823 1.02725 1.59242C1.10116 1.3166 1.3166 1.10116 1.59241 1.02725C1.86823 0.953347 2.16253 1.0322 2.36444 1.23412L8 6.86968L13.6356 1.23412C13.8375 1.0322 14.1318 0.953347 14.4076 1.02725C14.6834 1.10116 14.8988 1.3166 14.9727 1.59242C15.0467 1.86823 14.9678 2.16253 14.7659 2.36444L9.13032 8.00001L14.7659 13.6356C15.078 13.9477 15.078 14.4538 14.7659 14.7659C14.4538 15.078 13.9477 15.078 13.6356 14.7659L8 9.13033L2.36444 14.7659C2.05231 15.078 1.54625 15.078 1.23412 14.7659C0.921986 14.4538 0.921986 13.9477 1.23412 13.6356L6.86968 8.00001Z" fill="#364153"/>
</svg>
