<svg width="144" height="144" viewBox="0 0 144 144" fill="none" xmlns="http://www.w3.org/2000/svg">
<path fill-rule="evenodd" clip-rule="evenodd" d="M143.643 34.7656C143.001 34.1236 142.359 33.4816 141.717 34.1236C128.236 36.6915 114.112 34.1236 102.557 27.7038C94.2108 22.5679 83.9391 20 73.0254 20C43.4942 20 19.0989 41.8273 14.6051 70.0745V70.7165C14.6051 72.0005 14.6051 73.2844 13.9631 74.5684V75.8523V79.0623V79.7042C13.9631 93.8278 9.46923 107.309 0.481486 118.223C-0.160495 118.865 -0.160495 119.507 0.481486 120.149C1.12347 120.791 2.40743 121.433 3.04941 120.791L22.3089 109.235L31.9386 103.458L34.5065 101.532C30.6546 95.1118 28.0867 87.408 28.0867 79.0623C28.0867 54.667 47.9881 34.7656 72.3834 34.7656C88.4329 34.7656 102.557 43.7533 110.26 56.5929L123.1 48.8891L141.717 37.3335C144.285 36.6915 144.285 35.4075 143.643 34.7656ZM98.7061 63.6546C93.5703 55.3088 83.9406 49.531 73.0269 49.531C56.3354 49.531 43.4958 63.0126 43.4958 79.0621C43.4958 84.7582 44.7437 89.8304 47.2395 94.2786L35.1505 101.532C42.8543 114.372 56.9779 123.359 73.6694 123.359C98.0647 123.359 117.966 103.458 117.966 79.0627C117.966 77.7787 117.966 76.4948 117.324 75.8528C117.324 74.5688 116.682 73.9268 115.398 73.9268H114.756L103.201 80.9886C101.917 96.3962 89.077 108.594 73.6694 108.594C62.8329 108.594 53.2622 102.897 48.0998 94.0184L98.7061 63.6546Z" fill="white"/>
</svg>
