<svg width="400" height="400" viewBox="0 0 400 400" fill="none" xmlns="http://www.w3.org/2000/svg">
<path d="M395.793 117.923C412.903 187.652 381.664 328.643 230.564 351.974C79.4632 375.304 -28.274 215.535 6.58513 166.71C41.4443 117.885 136.557 185.215 199.14 104.867C261.724 24.5188 378.682 48.1931 395.793 117.923Z" fill="#DCE2FB"/>
<path d="M33.5201 112.143L97.8534 75V172.143L33.5201 209.286L33.5201 112.143Z" fill="#96A7F4"/>
<path d="M92.9047 72.1429L28.5714 109.286L33.5201 112.143L97.8534 75L92.9047 72.1429Z" fill="#DCE2FB"/>
<path d="M28.5714 109.286L28.5714 206.429L33.5201 209.286L33.5201 112.143L28.5714 109.286Z" fill="#B9C4F8"/>
<path fill-rule="evenodd" clip-rule="evenodd" d="M61.0178 133.286C60.0612 133.838 59.2857 135.181 59.2857 136.286V138C59.2857 139.105 60.0612 139.552 61.0178 139L69.9254 133.857C70.882 133.305 71.6575 131.962 71.6575 130.857V129.143C71.6575 128.038 70.882 127.591 69.9254 128.143L61.0178 133.286ZM79.5892 139.714C78.6326 140.267 77.8571 141.61 77.8571 142.714V144.429C77.8571 145.533 78.6326 145.981 79.5892 145.429L88.4969 140.286C89.4535 139.733 90.2289 138.39 90.2289 137.286V135.571C90.2289 134.467 89.4535 134.019 88.4969 134.571L79.5892 139.714Z" fill="white"/>
<path fill-rule="evenodd" clip-rule="evenodd" d="M77.8571 108.429C77.8571 107.324 78.6326 105.981 79.5892 105.429L88.4969 100.286C89.4535 99.7334 90.2289 100.181 90.2289 101.286V103C90.2289 104.105 89.4535 105.448 88.4969 106L79.5892 111.143C78.6326 111.695 77.8571 111.247 77.8571 110.143V108.429ZM40.7143 147C40.7143 145.895 41.4898 144.552 42.4463 144L51.354 138.857C52.3106 138.305 53.0861 138.753 53.0861 139.857V141.571C53.0861 142.676 52.3106 144.019 51.354 144.571L42.4463 149.714C41.4898 150.267 40.7143 149.819 40.7143 148.714V147ZM61.0178 150.429C60.0612 150.981 59.2857 152.324 59.2857 153.429V155.143C59.2857 156.247 60.0612 156.695 61.0178 156.143L69.9255 151C70.882 150.448 71.6575 149.105 71.6575 148V146.286C71.6575 145.181 70.882 144.733 69.9255 145.286L61.0178 150.429Z" fill="#DCE2FB"/>
<path fill-rule="evenodd" clip-rule="evenodd" d="M61.0178 116.143C60.0612 116.695 59.2857 118.038 59.2857 119.143V120.857C59.2857 121.962 60.0612 122.409 61.0178 121.857L69.9254 116.714C70.882 116.162 71.6575 114.819 71.6575 113.714V112C71.6575 110.895 70.882 110.448 69.9254 111L61.0178 116.143ZM61.0178 167.571C60.0612 168.124 59.2857 169.467 59.2857 170.571V172.286C59.2857 173.39 60.0612 173.838 61.0178 173.286L69.9254 168.143C70.882 167.591 71.6575 166.247 71.6575 165.143V163.429C71.6575 162.324 70.882 161.876 69.9254 162.429L61.0178 167.571Z" fill="#748AF0"/>
<path d="M227.908 48.5714L366.472 128.571V231.429L227.908 151.429L227.908 48.5714Z" fill="#EEF0FD"/>
<path d="M371.421 228.571V125.714L366.473 128.571V231.429L371.421 228.571Z" fill="#DCE2FB"/>
<path d="M371.421 125.714L232.857 45.7143L227.908 48.5714L366.472 128.571L371.421 125.714Z" fill="#F8F9FE"/>
<path fill-rule="evenodd" clip-rule="evenodd" d="M248.527 119.598C246.661 118.838 244.023 118.804 239.579 121.805C238.271 122.688 236.495 122.344 235.612 121.036C234.833 119.883 235.009 118.366 235.957 117.418C236.085 117.291 236.226 117.174 236.381 117.069C241.758 113.438 246.433 112.576 250.682 114.305C254.567 115.887 257.455 119.447 259.916 122.69C260.294 123.189 260.668 123.687 261.039 124.18C265.9 130.65 270.288 136.489 278.694 136.489C283.79 136.489 288.762 135.717 293.617 134.716C295.619 134.303 297.703 133.826 299.771 133.353C302.503 132.727 305.207 132.109 307.662 131.651C316.564 129.992 325.478 129.718 332.271 137.462C338.121 144.133 340.385 153.223 342.517 161.784C342.67 162.4 342.823 163.012 342.976 163.62C345.337 173.005 347.882 181.847 354.334 188.621C355.423 189.764 355.379 191.572 354.236 192.661C353.093 193.749 351.285 193.705 350.197 192.562C342.583 184.568 339.771 174.303 337.434 165.015C337.314 164.536 337.195 164.061 337.077 163.589C334.824 154.598 332.875 146.818 327.975 141.23C323.338 135.944 317.29 135.67 308.709 137.269C306.253 137.726 303.84 138.281 301.285 138.869C299.236 139.34 297.096 139.833 294.771 140.312C289.752 141.347 284.349 142.203 278.694 142.203C267.288 142.203 261.176 133.965 256.592 127.788C256.171 127.22 255.762 126.67 255.364 126.145C252.789 122.752 250.758 120.506 248.527 119.598Z" fill="#4F6CEC"/>
<path d="M238.401 115.049C243.778 111.418 248.453 110.556 252.702 112.285C256.587 113.867 259.475 117.427 261.936 120.67C262.315 121.169 262.688 121.666 263.06 122.16C267.921 128.63 272.308 134.469 280.714 134.469C285.81 134.469 290.782 133.696 295.637 132.695C297.639 132.282 299.723 131.805 301.791 131.332C304.523 130.707 307.227 130.088 309.683 129.631C318.584 127.972 327.498 127.697 334.291 135.442C340.142 142.113 342.405 151.203 344.537 159.764L344.555 159.835C344.702 160.427 344.849 161.015 344.996 161.6C347.357 170.985 349.903 179.827 356.355 186.601C357.443 187.744 357.399 189.552 356.256 190.64L354.336 192.56C355.38 191.464 355.39 189.729 354.334 188.621C347.882 181.847 345.337 173.005 342.976 163.62C342.829 163.035 342.682 162.447 342.535 161.856L342.517 161.784C340.385 153.223 338.121 144.133 332.271 137.462C325.478 129.718 316.564 129.992 307.662 131.651C305.207 132.109 302.503 132.727 299.771 133.353C297.703 133.826 295.619 134.303 293.617 134.716C288.762 135.717 283.79 136.489 278.694 136.489C270.288 136.489 265.9 130.65 261.039 124.18L261.039 124.18C260.668 123.686 260.294 123.189 259.916 122.69C257.455 119.447 254.567 115.887 250.682 114.305C246.433 112.576 241.758 113.438 236.381 117.069C236.226 117.174 236.085 117.291 235.957 117.418L237.977 115.398C238.105 115.271 238.246 115.154 238.401 115.049Z" fill="#748AF0"/>
<path d="M354.336 192.56C354.322 192.575 354.308 192.59 354.293 192.604L354.278 192.62L354.264 192.634L354.246 192.651L354.236 192.661L354.336 192.56Z" fill="#748AF0"/>
<rect width="108.571" height="108.571" transform="matrix(0.866025 0.5 -0.866025 0.5 199.692 169.286)" fill="#3E55BE"/>
<path d="M199.692 169.286L293.718 223.571L199.692 277.857L199.692 169.286Z" fill="#4F6CEC"/>
<path d="M199.692 272.143L283.82 223.571V229.286L199.692 277.857V272.143Z" fill="#DCE2FB"/>
<path d="M115.564 223.571L199.692 272.143V277.857L115.564 229.286V223.571Z" fill="#EEF0FD"/>
<rect width="97.1428" height="97.1429" transform="matrix(0.866025 0.5 -0.866025 0.5 199.692 175)" fill="white"/>
<path d="M234.999 203.571L264.692 186.429V220.714L234.999 237.857V203.571Z" fill="#DCE2FB"/>
<path d="M205.307 186.429L234.999 203.571V237.857L205.307 220.714V186.429Z" fill="#EEF0FD"/>
<rect width="34.2857" height="34.2857" transform="matrix(0.866025 0.5 -0.866025 0.5 234.999 169.286)" fill="#F8F9FE"/>
<path d="M164.286 203.571L193.978 186.429V220.714L164.286 237.857V203.571Z" fill="#DCE2FB"/>
<path d="M134.593 186.429L164.286 203.571V237.857L134.593 220.714V186.429Z" fill="#EEF0FD"/>
<rect width="34.2857" height="34.2857" transform="matrix(0.866025 0.5 -0.866025 0.5 164.286 169.286)" fill="#F8F9FE"/>
<path d="M199.692 223.571L229.385 206.429V240.714L199.692 257.857V223.571Z" fill="#DCE2FB"/>
<path d="M170 206.429L199.692 223.571V257.857L170 240.714V206.429Z" fill="#EEF0FD"/>
<rect width="34.2857" height="34.2857" transform="matrix(0.866025 0.5 -0.866025 0.5 199.692 189.286)" fill="#F8F9FE"/>
<path d="M199.692 143.571L229.385 126.429V160.714L199.692 177.857V143.571Z" fill="#DCE2FB"/>
<path d="M170 126.429L199.692 143.571V177.857L170 160.714V126.429Z" fill="#EEF0FD"/>
<rect width="34.2857" height="34.2857" transform="matrix(0.866025 0.5 -0.866025 0.5 199.692 109.286)" fill="#F8F9FE"/>
<path d="M234.999 163.571L264.692 146.429V180.714L234.999 197.857V163.571Z" fill="#DCE2FB"/>
<path d="M205.307 146.429L234.999 163.571V197.857L205.307 180.714V146.429Z" fill="#EEF0FD"/>
<rect width="34.2857" height="34.2857" transform="matrix(0.866025 0.5 -0.866025 0.5 234.999 129.286)" fill="#F8F9FE"/>
<path d="M164.286 163.571L193.978 146.429V180.714L164.286 197.857V163.571Z" fill="#3E55BE"/>
<path d="M134.593 146.429L164.286 163.571V197.857L134.593 180.714V146.429Z" fill="#4F6CEC"/>
<rect width="34.2857" height="34.2857" transform="matrix(0.866025 0.5 -0.866025 0.5 164.286 129.286)" fill="#748AF0"/>
<path d="M199.692 183.571L229.385 166.429V200.714L199.692 217.857V183.571Z" fill="#DCE2FB"/>
<path d="M170 166.429L199.692 183.571V217.857L170 200.714V166.429Z" fill="#EEF0FD"/>
<rect width="34.2857" height="34.2857" transform="matrix(0.866025 0.5 -0.866025 0.5 199.692 149.286)" fill="#F8F9FE"/>
<path d="M42.8571 61.4286H356.429L293.571 223.571L199.643 277.857L105.714 223.571L42.8571 61.4286Z" fill="url(#paint0_linear_1599_41889)"/>
<path d="M77.1429 266.429L106.835 249.286V255L77.1429 272.143V266.429Z" fill="#3E55BE"/>
<path d="M47.4506 249.286L77.1429 266.429V272.143L47.4506 255V249.286Z" fill="#4F6CEC"/>
<rect width="34.2857" height="34.2857" transform="matrix(0.866025 0.5 -0.866025 0.5 77.1429 232.143)" fill="#748AF0"/>
<path d="M79.2344 209.286L66.3773 214.72L61.4286 217.577L74.2857 212.143L79.2344 209.286Z" fill="#96A7F4"/>
<path d="M86.6575 249.286V226.429L81.7088 229.286V252.143L86.6575 249.286Z" fill="#3E55BE"/>
<path d="M92.0916 229.566L79.2344 209.286L74.2857 212.143L87.1428 232.423L92.0916 229.566Z" fill="#748AF0"/>
<path d="M87.1429 232.423L74.2857 212.143L61.4286 217.577L66.8627 220.714L66.8627 243.571L81.7088 252.143V229.286L87.1429 232.423Z" fill="#4F6CEC"/>
<path d="M261.788 257.857L321.128 223.571V275L261.788 309.286L261.788 257.857Z" fill="#748AF0"/>
<path d="M256.843 255V306.429L261.788 309.286L261.788 257.857L256.843 255Z" fill="#96A7F4"/>
<path d="M316.183 220.714L256.843 255L261.788 257.857L321.128 223.571L316.183 220.714Z" fill="#B9C4F8"/>
<path d="M293.055 251.542C292.887 251.445 292.655 251.459 292.399 251.607C291.887 251.903 291.472 252.623 291.472 253.214V264.203C291.472 264.203 290.203 263.47 288.947 262.743C287.716 262.032 286.499 261.328 286.499 261.328C286.136 261.118 285.549 261.458 285.187 262.085C284.825 262.713 284.825 263.392 285.187 263.601C285.187 263.601 286.457 264.335 287.713 265.061C288.943 265.773 290.161 266.477 290.161 266.477L283.127 270.541C282.615 270.837 282.2 271.556 282.2 272.148C282.2 272.444 282.304 272.652 282.472 272.749C282.639 272.846 282.871 272.832 283.127 272.684L290.161 268.619L286.166 275.547C285.804 276.174 285.804 276.853 286.166 277.062C286.528 277.271 287.115 276.932 287.477 276.304L291.472 269.379V280.368C291.472 280.664 291.576 280.872 291.744 280.969C291.911 281.065 292.143 281.051 292.399 280.904C292.911 280.608 293.326 279.888 293.326 279.296V268.307C293.326 268.307 294.149 268.783 294.964 269.254C295.762 269.715 296.551 270.172 296.551 270.172C296.914 270.381 297.501 270.042 297.863 269.414C298.225 268.787 298.225 268.108 297.863 267.899C297.863 267.899 297.039 267.423 296.225 266.952C295.427 266.49 294.637 266.034 294.637 266.034L304.144 260.541C304.656 260.245 305.071 259.525 305.071 258.934C305.071 258.638 304.967 258.43 304.799 258.333C304.631 258.236 304.4 258.25 304.144 258.398L294.637 263.89L297.863 258.298C298.225 257.671 298.225 256.992 297.863 256.783C297.501 256.574 296.913 256.913 296.551 257.541L293.326 263.132V252.143C293.326 251.847 293.223 251.639 293.055 251.542Z" fill="#DDE2FB"/>
<path d="M300.11 253.162C299.748 252.952 299.161 253.291 298.799 253.919C298.437 254.547 298.437 255.225 298.799 255.434C299.161 255.644 299.748 255.305 300.11 254.677C300.472 254.049 300.472 253.371 300.11 253.162Z" fill="#DDE2FB"/>
<path d="M278.8 273.041C278.288 273.337 277.873 274.056 277.873 274.648C277.873 274.944 277.977 275.152 278.145 275.249C278.312 275.346 278.544 275.332 278.8 275.184L280.037 274.469C280.549 274.173 280.964 273.454 280.964 272.862C280.964 272.566 280.86 272.358 280.692 272.261C280.524 272.165 280.293 272.179 280.037 272.326L278.8 273.041Z" fill="#DDE2FB"/>
<defs>
<linearGradient id="paint0_linear_1599_41889" x1="199.643" y1="90" x2="199.643" y2="277.857" gradientUnits="userSpaceOnUse">
<stop stop-color="#4F6CEC" stop-opacity="0"/>
<stop offset="1" stop-color="#4F6CEC" stop-opacity="0.2"/>
</linearGradient>
</defs>
</svg>
