<svg width="480" height="480" viewBox="0 0 480 480" fill="none" xmlns="http://www.w3.org/2000/svg">
<path d="M479.969 128.103C479.716 112.919 477.954 98.8558 474.951 86.6209C454.418 2.97356 314.069 -25.4261 238.968 70.9591C196.747 125.147 142.187 123.342 95.0746 121.783C58.3872 120.569 26.2156 119.504 7.90216 145.146C2.1282 153.231 -0.385582 163.851 0.0476408 176.079L0 176.084V480H480V132.054C480 131.953 480 131.851 480 131.749V128.1L479.969 128.103Z" fill="#DCE2FB"/>
<path d="M40.2241 79.6875L117.424 35.131V151.663L40.2241 196.22L40.2241 79.6875Z" fill="#96A7F4"/>
<path d="M111.486 31.7036L34.2856 76.2601L40.2241 79.6875L117.424 35.131L111.486 31.7036Z" fill="#DCE2FB"/>
<path d="M34.2856 76.2601L34.2856 192.792L40.2241 196.22L40.2241 79.6875L34.2856 76.2601Z" fill="#B9C4F8"/>
<path fill-rule="evenodd" clip-rule="evenodd" d="M72.875 105.25C71.9184 105.802 71.1428 107.145 71.1428 108.25V111.105C71.1428 112.209 71.9184 112.657 72.875 112.105L84.2568 105.536C85.2134 104.984 85.989 103.641 85.989 102.536V99.6813C85.989 98.5768 85.2134 98.1289 84.2568 98.6811L72.875 105.25ZM95.1607 112.962C94.204 113.514 93.4285 114.857 93.4285 115.962V118.816C93.4285 119.921 94.204 120.369 95.1607 119.817L106.542 113.248C107.499 112.695 108.275 111.352 108.275 110.248V107.393C108.275 106.288 107.499 105.841 106.542 106.393L95.1607 112.962Z" fill="white"/>
<path fill-rule="evenodd" clip-rule="evenodd" d="M93.4287 74.8325C93.4287 73.728 94.2042 72.3849 95.1609 71.8328L106.543 65.2637C107.499 64.7116 108.275 65.1594 108.275 66.264V69.1188C108.275 70.2234 107.499 71.5664 106.543 72.1186L95.1609 78.6876C94.2042 79.2398 93.4287 78.7919 93.4287 77.6874V74.8325ZM48.8572 121.103C48.8572 119.998 49.6327 118.655 50.5894 118.103L61.9711 111.534C62.9278 110.982 63.7033 111.43 63.7033 112.534V115.389C63.7033 116.494 62.9278 117.837 61.9711 118.389L50.5894 124.958C49.6327 125.51 48.8572 125.062 48.8572 123.958V121.103ZM72.875 125.815C71.9184 126.367 71.1428 127.71 71.1428 128.814V131.669C71.1428 132.774 71.9184 133.222 72.875 132.669L84.2568 126.1C85.2134 125.548 85.989 124.205 85.989 123.101V120.246C85.989 119.141 85.2134 118.693 84.2568 119.246L72.875 125.815Z" fill="#DCE2FB"/>
<path fill-rule="evenodd" clip-rule="evenodd" d="M72.875 84.6856C71.9184 85.2378 71.1428 86.5808 71.1428 87.6854V90.5402C71.1428 91.6448 71.9184 92.0926 72.875 91.5405L84.2568 84.9714C85.2134 84.4193 85.989 83.0762 85.989 81.9717V79.1168C85.989 78.0123 85.2134 77.5644 84.2568 78.1166L72.875 84.6856ZM72.875 146.379C71.9184 146.931 71.1428 148.274 71.1428 149.379V152.234C71.1428 153.338 71.9184 153.786 72.875 153.234L84.2568 146.665C85.2134 146.113 85.989 144.77 85.989 143.665V140.81C85.989 139.706 85.2134 139.258 84.2568 139.81L72.875 146.379Z" fill="#748AF0"/>
<path d="M273.49 3.4274L439.767 99.3951V222.782L273.49 126.815L273.49 3.4274Z" fill="#EEF0FD"/>
<path d="M445.706 219.355V95.9678L439.767 99.3952V222.782L445.706 219.355Z" fill="#DCE2FB"/>
<path d="M445.706 95.9677L279.429 0L273.49 3.42742L439.767 99.3952L445.706 95.9677Z" fill="#F8F9FE"/>
<path fill-rule="evenodd" clip-rule="evenodd" d="M298.233 88.6308C295.993 87.7193 292.827 87.6781 287.495 91.2782C285.925 92.3375 283.794 91.9246 282.735 90.3559C281.8 88.9729 282.011 87.1533 283.149 86.016C283.302 85.8632 283.471 85.7228 283.657 85.5974C290.11 81.2411 295.719 80.207 300.818 82.2818C305.48 84.1789 308.946 88.4497 311.899 92.34C312.353 92.9385 312.802 93.5353 313.247 94.1278C319.081 101.889 324.346 108.893 334.433 108.893C340.548 108.893 346.515 107.967 352.34 106.766C354.743 106.27 357.244 105.698 359.725 105.131C363.003 104.381 366.249 103.638 369.195 103.089C379.877 101.1 390.574 100.77 398.725 110.061C405.746 118.063 408.462 128.967 411.021 139.237C411.204 139.975 411.387 140.71 411.571 141.44C414.404 152.697 417.459 163.305 425.201 171.431C426.507 172.801 426.455 174.971 425.083 176.276C423.712 177.582 421.542 177.529 420.236 176.158C411.099 166.568 407.725 154.255 404.921 143.112C404.777 142.538 404.634 141.968 404.492 141.402C401.789 130.616 399.45 121.283 393.57 114.581C388.006 108.239 380.748 107.91 370.451 109.828C367.504 110.377 364.608 111.043 361.542 111.748C359.084 112.314 356.516 112.904 353.725 113.479C347.703 114.721 341.219 115.748 334.433 115.748C320.746 115.748 313.411 105.865 307.911 98.4551C307.405 97.774 306.915 97.1137 306.437 96.4839C303.347 92.4145 300.91 89.72 298.233 88.6308Z" fill="#4F6CEC"/>
<path d="M286.081 83.1738C292.534 78.8175 298.144 77.7835 303.242 79.8582C307.905 81.7553 311.37 86.0261 314.323 89.9165C314.778 90.5149 315.226 91.1118 315.672 91.7042C321.505 99.4652 326.77 106.47 336.857 106.47C342.973 106.47 348.939 105.543 354.764 104.342C357.168 103.847 359.668 103.275 362.15 102.707C365.428 101.957 368.673 101.215 371.619 100.666C382.301 98.676 392.998 98.3468 401.149 107.637C408.17 115.64 410.887 126.544 413.445 136.814L413.466 136.899C413.643 137.608 413.819 138.314 413.996 139.016C416.829 150.274 419.884 160.881 427.626 169.007C428.932 170.378 428.879 172.547 427.508 173.853L425.204 176.156C426.456 174.841 426.468 172.76 425.201 171.431C417.459 163.305 414.404 152.697 411.571 141.44C411.395 140.738 411.219 140.032 411.042 139.323L411.021 139.237C408.462 128.967 405.746 118.063 398.725 110.061C390.574 100.77 379.876 101.1 369.195 103.089C366.249 103.638 363.003 104.381 359.726 105.131C357.244 105.698 354.743 106.27 352.34 106.766C346.515 107.967 340.548 108.893 334.433 108.893C324.346 108.893 319.081 101.889 313.247 94.1277L313.247 94.1269C312.802 93.5348 312.353 92.9382 311.899 92.34C308.946 88.4496 305.48 84.1788 300.818 82.2817C295.719 80.207 290.11 81.241 283.657 85.5973C283.471 85.7227 283.302 85.8632 283.149 86.0159L285.573 83.5924C285.726 83.4397 285.896 83.2992 286.081 83.1738Z" fill="#748AF0"/>
<path d="M425.204 176.156C425.187 176.174 425.17 176.191 425.152 176.209L425.134 176.227L425.117 176.244L425.095 176.265L425.083 176.276L425.204 176.156Z" fill="#748AF0"/>
<rect width="130.275" height="130.275" transform="matrix(0.866025 0.5 -0.866025 0.5 239.631 148.236)" fill="#3E55BE"/>
<path d="M239.631 148.236L352.452 213.373L239.631 278.511V148.236Z" fill="#4F6CEC"/>
<path d="M239.631 271.623L340.585 213.357V220.212L239.631 278.478V271.623Z" fill="#DCE2FB"/>
<path d="M138.677 213.357L239.631 271.623V278.478L138.677 220.212V213.357Z" fill="#EEF0FD"/>
<rect width="116.562" height="116.562" transform="matrix(0.866098 0.499874 -0.866098 0.499874 239.631 155.091)" fill="white"/>
<path d="M281.999 189.365L317.63 168.8V209.929L281.999 230.494V189.365Z" fill="#DCE2FB"/>
<path d="M246.368 168.8L281.999 189.365V230.494L246.368 209.929V168.8Z" fill="#EEF0FD"/>
<rect width="41.1394" height="41.1394" transform="matrix(0.866025 0.5 -0.866025 0.5 281.999 148.236)" fill="#F8F9FE"/>
<path d="M197.143 189.365L232.774 168.8V209.929L197.143 230.494V189.365Z" fill="#DCE2FB"/>
<path d="M161.512 168.8L197.143 189.365V230.494L161.512 209.929V168.8Z" fill="#EEF0FD"/>
<rect width="41.1394" height="41.1394" transform="matrix(0.866025 0.5 -0.866025 0.5 197.143 148.236)" fill="#F8F9FE"/>
<path d="M239.631 213.357L275.261 192.792V233.921L239.631 254.486V213.357Z" fill="#DCE2FB"/>
<path d="M204 192.792L239.631 213.357V254.486L204 233.921V192.792Z" fill="#EEF0FD"/>
<rect width="41.1394" height="41.1394" transform="matrix(0.866025 0.5 -0.866025 0.5 239.63 172.228)" fill="#F8F9FE"/>
<path d="M239.631 117.389L275.262 96.8246V137.954L239.631 158.518V117.389Z" fill="#DCE2FB"/>
<path d="M204 96.8246L239.631 117.389V158.518L204 137.954V96.8246Z" fill="#EEF0FD"/>
<rect width="41.1394" height="41.1394" transform="matrix(0.866025 0.5 -0.866025 0.5 239.631 76.2601)" fill="#F8F9FE"/>
<path d="M281.999 141.381L317.63 120.816V161.946L281.999 182.51V141.381Z" fill="#DCE2FB"/>
<path d="M246.368 120.816L281.999 141.381V182.51L246.368 161.946V120.816Z" fill="#EEF0FD"/>
<rect width="41.1394" height="41.1394" transform="matrix(0.866025 0.5 -0.866025 0.5 281.999 100.252)" fill="#F8F9FE"/>
<path d="M197.143 141.381L232.774 120.816V161.946L197.143 182.51V141.381Z" fill="#3E55BE"/>
<path d="M161.512 120.816L197.143 141.381V182.51L161.512 161.946V120.816Z" fill="#4F6CEC"/>
<rect width="41.1394" height="41.1394" transform="matrix(0.866025 0.5 -0.866025 0.5 197.143 100.252)" fill="#748AF0"/>
<path d="M239.631 165.373L275.261 144.808V185.937L239.631 206.502V165.373Z" fill="#DCE2FB"/>
<path d="M204 144.808L239.631 165.373V206.502L204 185.937V144.808Z" fill="#EEF0FD"/>
<rect width="41.1394" height="41.1394" transform="matrix(0.866025 0.5 -0.866025 0.5 239.63 124.244)" fill="#F8F9FE"/>
<path d="M51.4285 18.8508H427.714L352.286 213.357L239.571 278.478L126.857 213.357L51.4285 18.8508Z" fill="url(#paint0_linear_1637_42655)"/>
<path d="M92.5715 264.768L128.202 244.204V251.058L92.5715 271.623V264.768Z" fill="#3E55BE"/>
<path d="M56.9407 244.204L92.5714 264.768V271.623L56.9407 251.058V244.204Z" fill="#4F6CEC"/>
<rect width="41.1394" height="41.1394" transform="matrix(0.866025 0.5 -0.866025 0.5 92.5714 223.639)" fill="#748AF0"/>
<path d="M95.0813 196.22L79.6528 202.738L73.7143 206.166L89.1429 199.647L95.0813 196.22Z" fill="#96A7F4"/>
<path d="M103.989 244.204V216.784L98.0505 220.212V247.631L103.989 244.204Z" fill="#3E55BE"/>
<path d="M110.51 220.548L95.0813 196.22L89.1429 199.647L104.571 223.975L110.51 220.548Z" fill="#748AF0"/>
<path d="M104.571 223.975L89.1429 199.647L73.7143 206.166L80.2352 209.929L80.2352 237.349L98.0506 247.631V220.212L104.571 223.975Z" fill="#4F6CEC"/>
<path d="M314.146 254.486L385.354 213.357V275.05L314.146 316.179L314.146 254.486Z" fill="#748AF0"/>
<path d="M308.211 251.058V312.752L314.146 316.179L314.146 254.486L308.211 251.058Z" fill="#96A7F4"/>
<path d="M379.42 209.929L308.211 251.058L314.145 254.486L385.354 213.357L379.42 209.929Z" fill="#B9C4F8"/>
<path d="M351.666 246.91C351.464 246.794 351.186 246.811 350.879 246.988C350.265 247.343 349.766 248.207 349.766 248.916V262.099C349.766 262.099 348.243 261.219 346.736 260.347C345.26 259.494 343.798 258.649 343.798 258.649C343.364 258.398 342.659 258.805 342.225 259.558C341.79 260.311 341.79 261.125 342.225 261.376C342.225 261.376 343.748 262.257 345.255 263.128C346.732 263.981 348.193 264.826 348.193 264.826L339.753 269.701C339.138 270.056 338.64 270.919 338.64 271.629C338.64 271.984 338.765 272.234 338.966 272.35C339.167 272.466 339.445 272.449 339.753 272.272L348.194 267.396L343.399 275.706C342.965 276.459 342.965 277.273 343.399 277.524C343.834 277.775 344.538 277.368 344.973 276.615L349.766 268.307V281.49C349.766 281.845 349.891 282.094 350.092 282.21C350.294 282.327 350.572 282.31 350.879 282.132C351.494 281.777 351.992 280.914 351.992 280.204V267.022C351.992 267.022 352.979 267.593 353.957 268.158C354.914 268.711 355.862 269.259 355.862 269.259C356.296 269.51 357.001 269.103 357.435 268.35C357.87 267.597 357.87 266.783 357.435 266.532C357.435 266.532 356.447 265.961 355.47 265.396C354.512 264.842 353.564 264.294 353.564 264.294L364.972 257.705C365.587 257.35 366.085 256.487 366.085 255.777C366.085 255.422 365.961 255.173 365.759 255.057C365.558 254.94 365.28 254.957 364.972 255.135L353.565 261.724L357.435 255.015C357.87 254.262 357.87 253.448 357.435 253.197C357.001 252.946 356.296 253.353 355.862 254.106L351.992 260.814V247.631C351.992 247.276 351.867 247.027 351.666 246.91Z" fill="#DDE2FB"/>
<path d="M360.132 248.853C359.698 248.602 358.993 249.009 358.559 249.762C358.124 250.515 358.124 251.329 358.559 251.58C358.993 251.831 359.698 251.424 360.132 250.671C360.567 249.918 360.567 249.104 360.132 248.853Z" fill="#DDE2FB"/>
<path d="M334.56 272.7C333.946 273.055 333.448 273.918 333.448 274.628C333.448 274.983 333.572 275.233 333.774 275.349C333.975 275.465 334.253 275.448 334.56 275.271L336.044 274.414C336.658 274.059 337.157 273.196 337.157 272.486C337.157 272.131 337.032 271.882 336.831 271.765C336.629 271.649 336.351 271.666 336.044 271.843L334.56 272.7Z" fill="#DDE2FB"/>
<defs>
<linearGradient id="paint0_linear_1637_42655" x1="239.571" y1="53.125" x2="239.571" y2="278.478" gradientUnits="userSpaceOnUse">
<stop stop-color="#4F6CEC" stop-opacity="0"/>
<stop offset="1" stop-color="#4F6CEC" stop-opacity="0.2"/>
</linearGradient>
</defs>
</svg>
