<svg width="24" height="24" viewBox="0 0 24 24" fill="none" xmlns="http://www.w3.org/2000/svg">
<circle cx="12" cy="11.4" r="11.4" fill="#748AF0"/>
<circle cx="12" cy="12.6" r="11.4" fill="#4F77FF"/>
<path fill-rule="evenodd" clip-rule="evenodd" d="M12 7.19998C11.5029 7.19998 11.1 7.60292 11.1 8.09998V12.9C11.1 13.397 11.5029 13.8 12 13.8C12.4971 13.8 12.9 13.397 12.9 12.9V8.09998C12.9 7.60293 12.4971 7.19998 12 7.19998ZM12 17.4C12.6627 17.4 13.2 16.8627 13.2 16.2C13.2 15.5372 12.6627 15 12 15C11.3373 15 10.8 15.5372 10.8 16.2C10.8 16.8627 11.3373 17.4 12 17.4Z" fill="white"/>
<path fill-rule="evenodd" clip-rule="evenodd" d="M12 7.79999C11.5029 7.79999 11.1 8.20293 11.1 8.69999V13.5C11.1 13.997 11.5029 14.4 12 14.4C12.4971 14.4 12.9 13.997 12.9 13.5V8.69999C12.9 8.20293 12.4971 7.79999 12 7.79999ZM12 18C12.6627 18 13.2 17.4627 13.2 16.8C13.2 16.1372 12.6627 15.6 12 15.6C11.3373 15.6 10.8 16.1372 10.8 16.8C10.8 17.4627 11.3373 18 12 18Z" fill="#EDF0FD"/>
</svg>
