<?xml version="1.0" encoding="utf-8"?>
<!-- Generator: Adobe Illustrator 26.3.1, SVG Export Plug-In . SVG Version: 6.00 Build 0)  -->
<svg version="1.1" id="图层_1" xmlns="http://www.w3.org/2000/svg" xmlns:xlink="http://www.w3.org/1999/xlink" x="0px" y="0px"
	 viewBox="0 0 96 32" style="enable-background:new 0 0 96 32;" xml:space="preserve">
<style type="text/css">
	.st0{fill:#446BF4;}
</style>
<g>
	<g>
		<path class="st0" d="M64.1,5.1c-0.6,0-1.1,0.5-1.1,1.1v1.2v1.2v2.1c-1-0.7-2.2-1.2-3.5-1.2c-3.2,0-5.8,2.6-5.8,5.8
			c0,3.2,2.6,5.8,5.8,5.8c3.2,0,5.8-2.6,5.8-5.8v0V8.6V7.4V6.2C65.2,5.6,64.7,5.1,64.1,5.1z M62.9,15.3c0,1.9-1.6,3.5-3.5,3.5
			c-1.9,0-3.5-1.6-3.5-3.5c0-1.9,1.6-3.5,3.5-3.5C61.4,11.8,62.9,13.4,62.9,15.3L62.9,15.3z"/>
		<path class="st0" d="M40.3,16.7c0,2.4-1.9,4.4-4.3,4.6c-0.1,0,0.4,0-6.1,0c0,0,0,0,0,0h0c-0.6,0-1.2-0.5-1.2-1.2V6.2
			c0-0.6,0.5-1.2,1.2-1.2c0,0-0.5,0,4.5,0c2.4,0.1,4.5,2.1,4.5,4.6c0,1.1-0.4,2.1-1,2.9C39.3,13.4,40.3,14.9,40.3,16.7z M34.1,7.4
			H31V12h3.1c1.3,0,2.4-1,2.4-2.4C36.5,8.4,35.4,7.4,34.1,7.4z M38,16.7c0-1.2-1-2.3-2.3-2.3H31v4.6h4.8C36.9,18.9,38,17.9,38,16.7z
			"/>
		<path class="st0" d="M48.6,10.7c0,0.6-0.5,1.2-1.2,1.2c-1.9,0-3.5,1.6-3.5,3.5v4.6c0,0.6-0.5,1.2-1.1,1.2c-0.6,0-1.2-0.5-1.2-1.2
			v-4.6c0-3.2,2.6-5.8,5.8-5.8C48.1,9.6,48.6,10.1,48.6,10.7z"/>
		<path class="st0" d="M50.3,7C50.1,6.8,50,6.5,50,6.2c0-0.3,0.1-0.6,0.3-0.8C50.5,5.1,50.8,5,51.1,5c0.3,0,0.6,0.1,0.8,0.3
			c0.2,0.2,0.3,0.5,0.3,0.8c0,0.3-0.1,0.6-0.3,0.8c-0.2,0.2-0.5,0.3-0.8,0.3C50.8,7.3,50.5,7.2,50.3,7z"/>
		<path class="st0" d="M50,20.1v-9.3c0-0.6,0.5-1.1,1.2-1.1c0.6,0,1.1,0.5,1.1,1.1v9.3c0,0.6-0.5,1.2-1.1,1.2
			C50.5,21.2,50,20.7,50,20.1z"/>
		<path class="st0" d="M78.1,21.2c0,3.2-2.6,5.8-5.8,5.8c-2.2,0-4.2-1.2-5.2-3.3c-0.3-0.6,0-1.2,0.5-1.5c0.6-0.3,1.2,0,1.5,0.5
			c0.6,1.2,1.8,2,3.2,2c1.9,0,3.5-1.5,3.5-3.4c0,0,0,0,0-1.3c-1,0.7-2.2,1.2-3.5,1.2c-3.2,0-5.8-2.6-5.8-5.8c0-3.2,2.6-5.8,5.8-5.8
			c3.2,0,5.8,2.6,5.8,5.8C78.1,15.4,78.1,15.4,78.1,21.2z M75.9,15.4c0-1.9-1.6-3.5-3.5-3.5c-1.9,0-3.5,1.6-3.5,3.5
			c0,1.9,1.6,3.5,3.5,3.5C74.3,18.9,75.9,17.3,75.9,15.4z"/>
		<path class="st0" d="M91.1,15.4c0,0.6-0.5,1.1-1.2,1.1h-8c0.5,1.4,1.8,2.4,3.3,2.4c0.5,0,1.5,0,2.6-0.8c0.5-0.3,1.2,0,1.5,0.5
			c0.3,0.6,0,1.2-0.6,1.5c-1.5,1-2.7,1-3.6,1c-3.2,0-5.8-2.6-5.8-5.8c0-3.2,2.6-5.8,5.8-5.8C88.1,9.6,91.1,11.6,91.1,15.4z M82,14.2
			h6.7c-0.5-1.6-2-2.4-3.4-2.4C83.8,11.9,82.5,12.9,82,14.2z"/>
	</g>
	<path class="st0" d="M33.3,10.7"/>
	<g>
		<path class="st0" d="M20.2,11.9L20.2,11.9c-0.8-1.3-2.3-2.2-4-2.2c-2.6,0-4.6,2.1-4.6,4.6c0,0.9,0.2,1.7,0.6,2.4L20.2,11.9z"/>
		<path class="st0" d="M27.2,7.4c-0.1-0.1-0.2-0.2-0.3-0.1l0,0l0,0c-2.1,0.4-4.3,0-6.1-1l0,0c-1.3-0.8-2.9-1.2-4.6-1.2
			c-4.6,0-8.4,3.4-9.1,7.8c0,0,0,0.1,0,0.1c0,0.2,0,0.4-0.1,0.6c0,0.1,0,0.1,0,0.2c0,0.2,0,0.3,0,0.5c0,0,0,0,0,0.1l0,0
			c0,2.2-0.7,4.3-2.1,6l0,0l0,0c-0.1,0.1-0.1,0.2,0,0.3c0.1,0.1,0.3,0.2,0.4,0.1l3-1.8l1.5-0.9l0,0l0.4-0.3c-0.6-1-1-2.2-1-3.5
			c0-3.8,3.1-6.9,6.9-6.9c2.5,0,4.7,1.4,5.9,3.4l2-1.2c0,0,0,0,0,0l0,0l0,0l2.9-1.8v0C27.3,7.7,27.3,7.5,27.2,7.4z"/>
		<path class="st0" d="M23.1,13.8C23.1,13.8,23.1,13.8,23.1,13.8C23.1,13.8,23.1,13.7,23.1,13.8C23.1,13.7,23.1,13.7,23.1,13.8
			L23.1,13.8c0-0.2-0.1-0.3-0.3-0.3c-0.1,0-0.1,0-0.1,0l0,0l-1.8,1.1c-0.2,2.4-2.2,4.3-4.6,4.3c-1.7,0-3.2-0.9-4-2.3l-2,1.2l0,0
			c1.2,2,3.4,3.4,6,3.4c3.8,0,6.9-3.1,6.9-6.9C23.2,14.1,23.2,13.9,23.1,13.8z"/>
	</g>
</g>
</svg>
