<svg width="119" height="36" viewBox="0 0 119 36" fill="none" xmlns="http://www.w3.org/2000/svg">
<path d="M64.0999 9.10001C63.4999 9.10001 63 9.60001 63 10.2V11.4V12.6V14.7C62 14 60.8 13.5 59.5 13.5C56.3 13.5 53.7 16.1 53.7 19.3C53.7 22.5 56.3 25.1 59.5 25.1C62.7 25.1 65.3 22.5 65.3 19.3V12.6V11.4V10.2C65.2 9.60001 64.6999 9.10001 64.0999 9.10001ZM62.9 19.3C62.9 21.2 61.3 22.8 59.4 22.8C57.5 22.8 55.9 21.2 55.9 19.3C55.9 17.4 57.5 15.8 59.4 15.8C61.4 15.8 62.9 17.4 62.9 19.3Z" fill="#446BF4"/>
<path d="M40.2999 20.7C40.2999 23.1 38.4 25.1 36 25.3C35.9 25.3 36.4 25.3 29.9 25.3C29.3 25.3 28.7 24.8 28.7 24.1V10.2C28.7 9.6 29.2 9 29.9 9C29.9 9 29.4 9 34.4 9C36.8 9.1 38.9 11.1 38.9 13.6C38.9 14.7 38.5 15.7 37.9 16.5C39.3 17.4 40.2999 18.9 40.2999 20.7ZM34.0999 11.4H31V16H34.0999C35.3999 16 36.5 15 36.5 13.6C36.5 12.4 35.3999 11.4 34.0999 11.4ZM38 20.7C38 19.5 37 18.4 35.7 18.4H31V23H35.7999C36.8999 22.9 38 21.9 38 20.7Z" fill="#446BF4"/>
<path d="M48.6 14.7C48.6 15.3 48.1 15.9 47.4 15.9C45.5 15.9 43.9 17.5 43.9 19.4V24C43.9 24.6 43.4 25.2 42.8 25.2C42.2 25.2 41.6 24.7 41.6 24V19.4C41.6 16.2 44.2 13.6 47.4 13.6C48.1 13.6 48.6 14.1 48.6 14.7Z" fill="#446BF4"/>
<path d="M50.3 11C50.1 10.8 50 10.5 50 10.2C50 9.9 50.1 9.6 50.3 9.4C50.5 9.1 50.8 9 51.1 9C51.4 9 51.7 9.1 51.9 9.3C52.1 9.5 52.2 9.8 52.2 10.1C52.2 10.4 52.1 10.7 51.9 10.9C51.7 11.1 51.4 11.2 51.1 11.2C50.8 11.3 50.5 11.2 50.3 11Z" fill="#446BF4"/>
<path d="M50 24.1V14.8C50 14.2 50.5 13.7 51.2 13.7C51.8 13.7 52.3 14.2 52.3 14.8V24.1C52.3 24.7 51.8 25.3 51.2 25.3C50.5 25.2 50 24.7 50 24.1Z" fill="#446BF4"/>
<path d="M78.1 25.2C78.1 28.4 75.5 31 72.3 31C70.1 31 68.1 29.8 67.1 27.7C66.8 27.1 67.1 26.5 67.6 26.2C68.2 25.9 68.8 26.2 69.1 26.7C69.7 27.9 70.9 28.7 72.3 28.7C74.2 28.7 75.8 27.2 75.8 25.3C75.8 25.3 75.8 25.3 75.8 24C74.8 24.7 73.6 25.2 72.3 25.2C69.1 25.2 66.5 22.6 66.5 19.4C66.5 16.2 69.1 13.6 72.3 13.6C75.5 13.6 78.1 16.2 78.1 19.4C78.1 19.4 78.1 19.4 78.1 25.2ZM75.9 19.4C75.9 17.5 74.3 15.9 72.4 15.9C70.5 15.9 68.9 17.5 68.9 19.4C68.9 21.3 70.5 22.9 72.4 22.9C74.3 22.9 75.9 21.3 75.9 19.4Z" fill="#446BF4"/>
<path d="M91.0999 19.4C91.0999 20 90.5999 20.5 89.8999 20.5H81.8999C82.3999 21.9 83.6999 22.9 85.1999 22.9C85.6999 22.9 86.6999 22.9 87.7999 22.1C88.2999 21.8 88.9999 22.1 89.2999 22.6C89.5999 23.2 89.2999 23.8 88.6999 24.1C87.1999 25.1 85.9999 25.1 85.0999 25.1C81.8999 25.1 79.2999 22.5 79.2999 19.3C79.2999 16.1 81.8999 13.5 85.0999 13.5C88.0999 13.6 91.0999 15.6 91.0999 19.4ZM81.9999 18.2H88.6999C88.1999 16.6 86.6999 15.8 85.2999 15.8C83.7999 15.9 82.4999 16.9 81.9999 18.2Z" fill="#446BF4"/>
<path d="M20.2 15.9C19.4 14.6 17.9 13.7 16.2 13.7C13.6 13.7 11.6 15.8 11.6 18.3C11.6 19.2 11.8 20 12.2 20.7L20.2 15.9Z" fill="#446BF4"/>
<path d="M27.2 11.4C27.1 11.3 27 11.2 26.9 11.3C24.8 11.7 22.6 11.3 20.8 10.3C19.5 9.50001 17.9 9.10001 16.2 9.10001C11.6 9.10001 7.79995 12.5 7.09995 16.9V17C7.09995 17.2 7.09995 17.4 6.99995 17.6C6.99995 17.7 6.99995 17.7 6.99995 17.8C6.99995 18 6.99995 18.1 6.99995 18.3C6.99995 18.3 6.99995 18.3 6.99995 18.4C6.99995 20.6 6.29995 22.7 4.89995 24.4C4.79995 24.5 4.79995 24.6 4.89995 24.7C4.99995 24.8 5.19995 24.9 5.29995 24.8L8.29995 23L9.79995 22.1L10.2 21.8C9.59995 20.8 9.19995 19.6 9.19995 18.3C9.19995 14.5 12.3 11.4 16.1 11.4C18.6 11.4 20.8 12.8 22 14.8L24 13.6L26.9 11.8C27.3 11.7 27.3 11.5 27.2 11.4Z" fill="#446BF4"/>
<path d="M23.0999 17.8C23.0999 17.8 23.0999 17.7 23.0999 17.8C23.0999 17.7 23.0999 17.7 23.0999 17.8C23.0999 17.6 22.9999 17.5 22.7999 17.5C22.6999 17.5 22.6999 17.5 22.6999 17.5L20.8999 18.6C20.6999 21 18.6999 22.9 16.2999 22.9C14.5999 22.9 13.0999 22 12.2999 20.6L10.2999 21.8C11.4999 23.8 13.6999 25.2 16.2999 25.2C20.0999 25.2 23.1999 22.1 23.1999 18.3C23.1999 18.1 23.1999 17.9 23.0999 17.8Z" fill="#446BF4"/>
<path d="M95.1426 1.46875V10H94.0293V1.46875H95.1426ZM97.8848 1.46875V2.39453H91.293V1.46875H97.8848Z" fill="#4D6AEC"/>
<path d="M104.57 9.08008V10H100.053V9.08008H104.57ZM100.281 1.46875V10H99.1504V1.46875H100.281ZM103.973 5.13672V6.05664H100.053V5.13672H103.973ZM104.512 1.46875V2.39453H100.053V1.46875H104.512Z" fill="#4D6AEC"/>
<path d="M110.518 7.84375C110.518 7.64453 110.486 7.46875 110.424 7.31641C110.365 7.16016 110.26 7.01953 110.107 6.89453C109.959 6.76953 109.752 6.65039 109.486 6.53711C109.225 6.42383 108.893 6.30859 108.49 6.19141C108.068 6.06641 107.688 5.92773 107.348 5.77539C107.008 5.61914 106.717 5.44141 106.475 5.24219C106.232 5.04297 106.047 4.81445 105.918 4.55664C105.789 4.29883 105.725 4.00391 105.725 3.67188C105.725 3.33984 105.793 3.0332 105.93 2.75195C106.066 2.4707 106.262 2.22656 106.516 2.01953C106.773 1.80859 107.08 1.64453 107.436 1.52734C107.791 1.41016 108.188 1.35156 108.625 1.35156C109.266 1.35156 109.809 1.47461 110.254 1.7207C110.703 1.96289 111.045 2.28125 111.279 2.67578C111.514 3.06641 111.631 3.48438 111.631 3.92969H110.506C110.506 3.60938 110.438 3.32617 110.301 3.08008C110.164 2.83008 109.957 2.63477 109.68 2.49414C109.402 2.34961 109.051 2.27734 108.625 2.27734C108.223 2.27734 107.891 2.33789 107.629 2.45898C107.367 2.58008 107.172 2.74414 107.043 2.95117C106.918 3.1582 106.855 3.39453 106.855 3.66016C106.855 3.83984 106.893 4.00391 106.967 4.15234C107.045 4.29688 107.164 4.43164 107.324 4.55664C107.488 4.68164 107.695 4.79688 107.945 4.90234C108.199 5.00781 108.502 5.10938 108.854 5.20703C109.338 5.34375 109.756 5.49609 110.107 5.66406C110.459 5.83203 110.748 6.02148 110.975 6.23242C111.205 6.43945 111.375 6.67578 111.484 6.94141C111.598 7.20312 111.654 7.5 111.654 7.83203C111.654 8.17969 111.584 8.49414 111.443 8.77539C111.303 9.05664 111.102 9.29688 110.84 9.49609C110.578 9.69531 110.264 9.84961 109.896 9.95898C109.533 10.0645 109.127 10.1172 108.678 10.1172C108.283 10.1172 107.895 10.0625 107.512 9.95312C107.133 9.84375 106.787 9.67969 106.475 9.46094C106.166 9.24219 105.918 8.97266 105.73 8.65234C105.547 8.32812 105.455 7.95312 105.455 7.52734H106.58C106.58 7.82031 106.637 8.07227 106.75 8.2832C106.863 8.49023 107.018 8.66211 107.213 8.79883C107.412 8.93555 107.637 9.03711 107.887 9.10352C108.141 9.16602 108.404 9.19727 108.678 9.19727C109.072 9.19727 109.406 9.14258 109.68 9.0332C109.953 8.92383 110.16 8.76758 110.301 8.56445C110.445 8.36133 110.518 8.12109 110.518 7.84375Z" fill="#4D6AEC"/>
<path d="M116.248 1.46875V10H115.135V1.46875H116.248ZM118.99 1.46875V2.39453H112.398V1.46875H118.99Z" fill="#4D6AEC"/>
</svg>
